<?xml version="1.0" standalone="no"?>
<!DOCTYPE svg PUBLIC "-//W3C//DTD SVG 20010904//EN"
 "http://www.w3.org/TR/2001/REC-SVG-20010904/DTD/svg10.dtd">
 
<svg version="1.0" xmlns="http://www.w3.org/2000/svg">

<g transform="translate(0.000000,360.000000) scale(0.100000,-0.100000)" stroke="white">
<path d="M1781 2754 c-131 -46 -222 -157 -245 -300 -7 -40 -10 -42 -99 -87
-167 -83 -295 -216 -376 -388 l-41 -86 -46 -7 c-107 -14 -209 -105 -240 -214
-56 -191 82 -385 282 -397 l56 -3 44 -69 c110 -168 275 -289 471 -345 112 -32
314 -32 426 0 196 56 357 175 470 345 l46 69 55 3 c110 7 215 76 263 173 38
78 40 192 3 267 -45 92 -133 159 -225 172 l-45 6 -44 91 c-100 208 -273 362
-483 431 -29 9 -53 20 -53 23 0 4 25 25 56 47 l55 40 -33 14 c-50 22 -184 26
-238 7 -24 -8 -46 -13 -48 -11 -7 7 27 135 49 184 10 24 19 45 19 47 0 8 -37
2 -79 -12z m-135 -668 c29 -7 75 -26 103 -41 l51 -28 51 28 c94 51 193 66 288
44 120 -27 228 -114 284 -229 30 -60 32 -72 32 -170 0 -102 -1 -109 -38 -182
-45 -92 -109 -154 -201 -194 l-64 -27 -4 -76 c-8 -138 -85 -253 -206 -309 -48
-22 -71 -27 -142 -27 -71 0 -94 5 -142 27 -122 57 -198 171 -206 309 l-4 77
-47 18 c-170 64 -269 220 -259 410 4 67 10 94 37 148 87 177 284 271 467 222z
m-656 -458 c1 -46 5 -103 10 -128 4 -25 7 -47 4 -49 -9 -9 -66 24 -84 49 -41
58 -34 133 17 184 44 45 53 36 53 -56z m1678 47 c49 -56 53 -116 11 -176 -18
-26 -75 -57 -85 -47 -2 3 0 25 5 49 6 24 11 81 11 127 0 95 10 103 58 47z"/>
<path d="M1494 1576 c-60 -51 -19 -150 62 -150 74 0 113 96 59 149 -32 33 -84
33 -121 1z"/>
<path d="M1985 1575 c-54 -53 -15 -149 59 -149 81 0 121 100 61 151 -36 31
-88 31 -120 -2z"/>
<path d="M1670 1118 c0 -19 34 -67 60 -85 14 -10 43 -17 70 -17 51 0 83 18
111 61 34 51 30 53 -111 53 -97 0 -130 -3 -130 -12z"/>
</g>
</svg>
